<svg width="71" height="61" viewBox="0 0 71 61" fill="none" xmlns="http://www.w3.org/2000/svg">
<path d="M70.716 21.8061L54.386 0.712619C54.102 0.285049 53.676 2.45869e-06 53.108 2.45869e-06H45.582C45.014 2.45869e-06 44.588 0.285049 44.304 0.855143C43.026 3.42056 41.606 5.55841 40.044 6.84112C38.482 8.26636 36.636 8.97897 34.932 8.97897C31.524 8.97897 28.4 5.98598 26.696 0.855143C26.554 0.285049 25.986 -0.142521 25.276 -0.142521H17.75C17.324 -0.142521 16.756 0.142526 16.614 0.427573L0.284 21.8061C0 22.0911 0 22.5187 0 22.9463C0 23.3738 0.284 23.6589 0.568 23.9439L8.946 30.5C9.514 30.9276 10.508 30.785 10.934 30.215L16.472 23.0888V59.7173C16.472 60.4299 17.182 61.1425 17.892 61.1425H53.25C53.96 61.1425 54.67 60.4299 54.67 59.7173V23.0888L60.208 30.215C60.634 30.785 61.628 30.9276 62.196 30.5L70.574 23.9439C70.858 23.6589 71 23.3738 71.142 22.9463C71 22.5187 71 22.0911 70.716 21.8061Z" fill="#FAFF00"/>
</svg>
