<svg width="76" height="66" viewBox="0 0 76 66" fill="none" xmlns="http://www.w3.org/2000/svg">
<path d="M70.716 25.8061L54.386 4.71262C54.102 4.28505 53.676 4 53.108 4H45.582C45.014 4 44.588 4.28505 44.304 4.85514C43.026 7.42056 41.606 9.55841 40.044 10.8411C38.482 12.2664 36.636 12.979 34.932 12.979C31.524 12.979 28.4 9.98598 26.696 4.85514C26.554 4.28505 25.986 3.85748 25.276 3.85748H17.75C17.324 3.85748 16.756 4.14253 16.614 4.42757L0.284 25.8061C0 26.0911 0 26.5187 0 26.9463C0 27.3738 0.284 27.6589 0.568 27.9439L8.946 34.5C9.514 34.9276 10.508 34.785 10.934 34.215L16.472 27.0888V63.7173C16.472 64.4299 17.182 65.1425 17.892 65.1425H53.25C53.96 65.1425 54.67 64.4299 54.67 63.7173V27.0888L60.208 34.215C60.634 34.785 61.628 34.9276 62.196 34.5L70.574 27.9439C70.858 27.6589 71 27.3738 71.142 26.9463C71 26.5187 71 26.0911 70.716 25.8061Z" fill="black" fill-opacity="0.6"/>
<path d="M74.716 22.8061L58.386 1.71262C58.102 1.28505 57.676 1 57.108 1H49.582C49.014 1 48.588 1.28505 48.304 1.85514C47.026 4.42056 45.606 6.55841 44.044 7.84112C42.482 9.26636 40.636 9.97897 38.932 9.97897C35.524 9.97897 32.4 6.98598 30.696 1.85514C30.554 1.28505 29.986 0.857479 29.276 0.857479H21.75C21.324 0.857479 20.756 1.14253 20.614 1.42757L4.284 22.8061C4 23.0911 4 23.5187 4 23.9463C4 24.3738 4.284 24.6589 4.568 24.9439L12.946 31.5C13.514 31.9276 14.508 31.785 14.934 31.215L20.472 24.0888V60.7173C20.472 61.4299 21.182 62.1425 21.892 62.1425H57.25C57.96 62.1425 58.67 61.4299 58.67 60.7173V24.0888L64.208 31.215C64.634 31.785 65.628 31.9276 66.196 31.5L74.574 24.9439C74.858 24.6589 75 24.3738 75.142 23.9463C75 23.5187 75 23.0911 74.716 22.8061Z" fill="#FAFF00"/>
<line x1="39" y1="10" x2="39" y2="62" stroke="black" stroke-opacity="0.6" stroke-width="2"/>
<mask id="mask0" mask-type="alpha" maskUnits="userSpaceOnUse" x="4" y="0" width="72" height="63">
<path d="M74.716 22.8061L58.386 1.71262C58.102 1.28505 57.676 1 57.108 1H49.582C49.014 1 48.588 1.28505 48.304 1.85514C47.026 4.42056 45.606 6.55841 44.044 7.84112C42.482 9.26636 40.636 9.97897 38.932 9.97897C35.524 9.97897 32.4 6.98598 30.696 1.85514C30.554 1.28505 29.986 0.857479 29.276 0.857479H21.75C21.324 0.857479 20.756 1.14253 20.614 1.42757L4.284 22.8061C4 23.0911 4 23.5187 4 23.9463C4 24.3738 4.284 24.6589 4.568 24.9439L12.946 31.5C13.514 31.9276 14.508 31.785 14.934 31.215L20.472 24.0888V60.7173C20.472 61.4299 21.182 62.1425 21.892 62.1425H57.25C57.96 62.1425 58.67 61.4299 58.67 60.7173V24.0888L64.208 31.215C64.634 31.785 65.628 31.9276 66.196 31.5L74.574 24.9439C74.858 24.6589 75 24.3738 75.142 23.9463C75 23.5187 75 23.0911 74.716 22.8061Z" fill="#FAFF00"/>
</mask>
<g mask="url(#mask0)">
<line x1="-22.3707" y1="-1.77715" x2="18.0409" y2="30.9475" stroke="black" stroke-opacity="0.6" stroke-width="2"/>
<line x1="61.3707" y1="30.9475" x2="101.782" y2="-1.77715" stroke="black" stroke-opacity="0.6" stroke-width="2"/>
</g>
</svg>
